<svg width="765" height="482" viewBox="0 0 765 482" fill="none" xmlns="http://www.w3.org/2000/svg">
<path d="M764 221.768H719.981L420.377 48.6933C398.45 36.0334 363.012 36.0334 341.231 48.6933L43.5805 221.768H0V260.588C0.0547723 268.882 5.55026 277.194 16.523 283.533L343.623 472.5C365.55 485.16 400.988 485.16 422.769 472.5L747.751 283.533C758.632 277.194 764.055 268.9 764.018 260.606V221.786L764 221.768Z" fill="#97B5FF"/>
<path d="M747.477 198.841C769.404 211.501 769.514 232.053 747.733 244.713L422.751 433.68C400.969 446.34 365.532 446.34 343.605 433.68L16.523 244.713C-5.4042 232.053 -5.51375 211.501 16.2674 198.841L341.249 9.87308C363.031 -2.78688 398.468 -2.78688 420.395 9.87308L747.495 198.841H747.477Z" fill="#CCD9FF"/>
</svg>
