<svg width="158" height="192" viewBox="0 0 158 192" fill="none" xmlns="http://www.w3.org/2000/svg">
<g opacity="0.8">
<path d="M1.03338 14.1719L0.796021 114.648L25.3888 128.842L25.6078 28.3847L1.03338 14.1719Z" fill="#97B5FF"/>
<path d="M25.3888 128.842L49.4886 114.83L49.7259 14.3546L25.6079 28.3847L25.3888 128.842Z" fill="#587CE5"/>
<path d="M25.6078 28.3847L49.7258 14.3546L25.1331 0.141846L1.03333 14.1719L25.6078 28.3847Z" fill="#C5D2FC"/>
<path d="M37.0005 80.8331L36.8727 135.474L61.4654 149.686L61.5932 95.0276L37.0005 80.8331Z" fill="#3123C3"/>
<path d="M61.4655 149.686L85.5653 135.656L85.6931 81.0157L61.5933 95.0276L61.4655 149.686Z" fill="#180CB3"/>
<path d="M61.5932 95.0276L85.6931 81.0157L61.1185 66.803L37.0005 80.8331L61.5932 95.0276Z" fill="#5447CB"/>
<path d="M73.1319 75.3526L72.9493 156.318L97.5421 170.531L97.7247 89.5654L73.1319 75.3526Z" fill="#97B5FF"/>
<path d="M97.5421 170.531L121.642 156.501L121.824 75.5353L97.7247 89.5654L97.5421 170.531Z" fill="#587CE5"/>
<path d="M97.7246 89.5653L121.824 75.5353L97.2499 61.3408L73.1319 75.3526L97.7246 89.5653Z" fill="#C5D2FC"/>
<path d="M109.099 139.2L109.026 177.162L133.619 191.375L133.692 153.413L109.099 139.2Z" fill="#3123C3"/>
<path d="M133.619 191.375L157.719 177.345L157.792 139.401L133.692 153.413L133.619 191.375Z" fill="#180CB3"/>
<path d="M133.692 153.413L157.792 139.401L133.217 125.189L109.099 139.2L133.692 153.413Z" fill="#5447CB"/>
</g>
</svg>
