<svg width="80" height="167" viewBox="0 0 80 167" fill="none" xmlns="http://www.w3.org/2000/svg">
<path d="M0.508179 46.4634L79.3985 0.883911L79.7454 120.797L0.855074 166.377L0.508179 46.4634ZM40.2728 137.093C55.8099 128.123 68.3528 106.384 68.298 88.5171C68.2615 74.0851 60.0091 66.6317 48.653 69.0065C45.9509 69.5729 43.0845 70.7055 40.0903 72.4227C24.5532 81.3925 12.0104 103.15 12.0651 120.998C12.1016 135.412 20.354 142.884 31.7101 140.491C34.4122 139.924 37.2969 138.792 40.2728 137.074M72.5702 29.8027V24.6145L7.46425 62.2107V67.3989L72.5702 29.8027ZM7.50077 74.1399V82.927L26.1599 72.167V63.3799L7.50077 74.1399ZM72.6067 45.3308V36.5437L53.9477 47.3038V56.0908L72.6067 45.3308ZM30.7607 69.5181L49.3833 58.758V49.9709L30.7242 60.731V69.5181M7.42774 52.8573V58.0455L30.925 44.4904V39.3022L7.42774 52.8573Z" fill="#587DE5"/>
<path d="M48.653 69.0249C60.0091 66.6317 68.2614 74.1035 68.298 88.5354C68.3527 106.384 55.7916 128.141 40.2728 137.111C37.2786 138.828 34.4122 139.961 31.7101 140.527L34.5765 128.452C36.3657 128.068 38.2645 127.337 40.2546 126.186C50.5335 120.249 58.8406 105.836 58.8224 94.0159C58.8041 84.4616 53.3269 79.5109 45.8048 81.1002L48.6712 69.0249H48.653Z" fill="#97B5FF"/>
<path d="M21.5589 115.536C21.5772 125.09 27.0544 130.023 34.5765 128.452L31.7101 140.527C20.3539 142.92 12.1016 135.448 12.0651 121.035L21.5589 115.554V115.536Z" fill="#3123C3"/>
<path d="M45.7866 81.1002C53.3087 79.5108 58.7676 84.4616 58.8042 94.0159C58.8407 105.836 50.5336 120.249 40.2364 126.186C38.2646 127.337 36.3475 128.068 34.5583 128.452C27.0362 130.041 21.5773 125.09 21.5408 115.536C21.5043 103.698 29.8114 89.3027 40.1086 83.3655C42.0804 82.2328 43.9974 81.4838 45.7866 81.1002Z" fill="#587DE5"/>
<path d="M40.0902 72.441C43.0844 70.7238 45.9508 69.5912 48.6529 69.0248L45.7865 81.1002C43.9973 81.4656 42.0985 82.2146 40.1085 83.3655C29.8113 89.3027 21.5042 103.716 21.5407 115.536L12.0468 121.017C11.992 103.168 24.5531 81.4108 40.0719 72.441H40.0902Z" fill="#5647CB"/>
<path d="M49.3468 49.9709L49.3833 58.758L30.7608 69.5181L30.7242 60.731L49.3468 49.9709Z" fill="white"/>
<path d="M26.1233 63.3799L26.1416 72.1852L7.51899 82.9453L7.50073 74.1399L26.1233 63.3799Z" fill="white"/>
<path d="M72.5519 24.6145L72.5702 29.8027L7.48249 67.3989L7.46423 62.2107L72.5519 24.6145Z" fill="#CCD9FF"/>
<path d="M30.9068 39.3022L30.925 44.4905L7.446 58.0638L7.42773 52.8574L30.9068 39.3022Z" fill="#CCD9FF"/>
<path d="M72.5885 36.5437L72.6068 45.3308L53.9842 56.0908L53.9659 47.3038L72.5885 36.5437Z" fill="white"/>
</svg>
