<svg width="447" height="470" viewBox="0 0 447 470" fill="none" xmlns="http://www.w3.org/2000/svg">
<path d="M435.136 147.383L184.041 2.33193C180.937 0.541629 178.126 0.340677 176.044 1.41851L175.917 1.47332C175.898 1.47332 175.862 1.50985 175.844 1.50985L170.859 4.30491L173.05 5.12698C172.667 6.22308 172.466 7.4836 172.466 8.9268L171.973 184.047C171.955 191.373 177.103 200.306 183.475 203.978L434.57 349.028C435.702 349.686 436.797 350.125 437.838 350.362L437.582 352.755L442.621 349.924C444.794 348.773 446.163 346.16 446.181 342.415L446.674 167.295C446.693 159.969 441.544 151.036 435.172 147.346L435.136 147.383Z" fill="#97B5FF"/>
<path d="M430.06 150.251C436.432 153.941 441.58 162.856 441.562 170.2L441.069 345.32C441.051 352.646 435.866 355.605 429.494 351.915L178.4 206.864C172.028 203.192 166.879 194.259 166.898 186.933L167.39 11.8132C167.409 4.48759 172.594 1.52812 178.966 5.20005L430.06 150.251Z" fill="#0D095E"/>
<path d="M428.873 164.171L428.38 336.642L179.586 192.925L180.079 20.4541L428.873 164.171Z" fill="#5447CB"/>
<path d="M435.464 372.357V358.802L427.102 363.716L179.568 220.712C173.196 217.04 162.899 217.021 156.564 220.712L11.1983 305.239L0.5177 301.439V315.342C0.5177 317.753 2.12435 320.183 5.3194 322.028L256.414 467.078C262.786 470.769 273.083 470.75 279.418 467.078L430.736 379.08C433.931 377.216 435.501 374.787 435.464 372.339V372.357Z" fill="#587CE5"/>
<path d="M107.251 367.352L146.559 390.059L143.948 392.16C143.072 392.872 141.757 392.818 140.388 392.032L113.385 376.431C111.997 375.627 110.701 374.184 109.825 372.448L107.232 367.352H107.251Z" fill="#0D095E"/>
<path d="M430.662 352.189C437.034 355.879 437.071 361.835 430.736 365.525L279.418 453.523C273.101 457.195 262.786 457.213 256.414 453.523L5.31937 308.473C-1.05247 304.801 -1.08899 298.827 5.24634 295.137L156.564 207.138C162.899 203.448 173.196 203.466 179.568 207.138L430.662 352.189Z" fill="#97B5FF"/>
<path d="M403.861 352.773C405.778 353.87 405.796 355.678 403.897 356.774L322.25 404.254C320.351 405.35 317.266 405.35 315.349 404.254L85.0312 271.205C83.1142 270.109 83.1142 268.319 85.013 267.205L166.66 219.725C168.559 218.629 171.644 218.629 173.561 219.725L403.879 352.773H403.861Z" fill="#587CE5"/>
<path d="M135.02 281.125L124.394 287.3L112.034 280.157L122.66 273.982L135.02 281.125Z" fill="#0D095E"/>
<path d="M117.475 270.986L106.849 277.161L93.0463 269.196L103.672 263.021L117.475 270.986Z" fill="#0D095E"/>
<path d="M173.671 238.304L163.045 244.479L149.261 236.514L159.868 230.339L173.671 238.304Z" fill="#0D095E"/>
<path d="M164.122 249.082L153.515 255.257L135.203 244.68L145.828 238.505L164.122 249.082Z" fill="#0D095E"/>
<path d="M154.117 259.587L143.51 265.761L121.144 252.846L131.77 246.671L154.117 259.587Z" fill="#0D095E"/>
<path d="M150.794 273.946L140.169 280.12L107.104 261.03L117.73 254.837L150.794 273.946Z" fill="#0D095E"/>
<path d="M152.565 291.264L141.94 297.439L129.579 290.296L140.205 284.121L152.565 291.264Z" fill="#0D095E"/>
<path d="M170.494 301.622L159.868 307.797L147.125 300.435L157.751 294.26L170.494 301.622Z" fill="#0D095E"/>
<path d="M376.84 343.804L370.03 347.768L182.289 239.309L189.099 235.345L376.84 343.804Z" fill="#0D095E"/>
<path d="M353.908 342.434L343.301 348.608L168.249 247.475L178.856 241.3L353.908 342.434Z" fill="#0D095E"/>
<path d="M332.93 346.599L322.323 352.773L158.7 258.253L169.326 252.078L332.93 346.599Z" fill="#0D095E"/>
<path d="M395.827 354.765L388.999 358.729L375.215 350.764L382.043 346.8L395.827 354.765Z" fill="#0D095E"/>
<path d="M258.769 352.609L248.143 358.784L165.072 310.793L175.698 304.618L258.769 352.609Z" fill="#0D095E"/>
<path d="M321.483 356.263L310.857 362.437L148.695 268.757L159.303 262.583L321.483 356.263Z" fill="#0D095E"/>
<path d="M295.612 357.596L284.987 363.789L145.372 283.135L155.998 276.942L295.612 357.596Z" fill="#0D095E"/>
<path d="M352.557 357.925L341.931 364.1L327.508 355.769L338.134 349.595L352.557 357.925Z" fill="#0D095E"/>
<path d="M385.567 360.72L374.959 366.895L348.486 351.604L359.112 345.43L385.567 360.72Z" fill="#0D095E"/>
<path d="M278.962 364.283L268.336 370.457L253.346 361.798L263.972 355.605L278.962 364.283Z" fill="#0D095E"/>
<path d="M371.527 368.886L360.901 375.061L347.135 367.096L357.742 360.939L371.527 368.886Z" fill="#0D095E"/>
<path d="M357.468 377.07L346.861 383.245L316.061 365.452L326.668 359.277L357.468 377.07Z" fill="#0D095E"/>
<path d="M343.429 385.236L332.803 391.411L290.172 366.785L300.797 360.611L343.429 385.236Z" fill="#0D095E"/>
<path d="M329.37 393.402L318.745 399.577L273.521 373.453L284.147 367.279L329.37 393.402Z" fill="#0D095E"/>
<path d="M183.913 232.349L177.085 236.313L163.301 228.348L170.111 224.384L183.913 232.349Z" fill="#0D095E"/>
<path d="M145.189 383.72C146.559 384.506 147.253 385.62 147.088 386.734L146.577 390.041L107.269 367.333L112.983 367.023C114.919 366.913 116.817 367.315 118.205 368.119L145.208 383.72H145.189Z" fill="#587CE5"/>
<path d="M229.594 366.475C231.511 367.571 231.511 369.379 229.612 370.475L184.406 396.764C182.508 397.86 179.404 397.86 177.487 396.764L95.5658 349.43C93.6488 348.334 93.6488 346.526 95.5658 345.43L140.771 319.141C142.67 318.045 145.755 318.027 147.673 319.141L229.594 366.475Z" fill="#587CE5"/>
<path d="M392.468 392.16V396.161L363 413.187V409.186L392.468 392.16Z" fill="#0D095E"/>
<path d="M410.561 381.71V385.711L397.89 393.037V389.018L410.561 381.71Z" fill="#0D095E"/>
<path d="M428.636 371.261L428.654 375.262L415.984 382.587L415.965 378.568L428.636 371.261Z" fill="#0D095E"/>
</svg>
