<svg width="24" height="24" viewBox="0 0 24 24" fill="none" xmlns="http://www.w3.org/2000/svg">
<g clip-path="url(#clip0_146_121)">
<path d="M17 7.99999H7V6.99999C6.99969 5.89139 7.36782 4.81413 8.04652 3.93756C8.72521 3.061 9.67597 2.43484 10.7493 2.15755C11.8227 1.88025 12.9578 1.96753 13.9761 2.40567C14.9944 2.84381 15.8383 3.60796 16.375 4.57799C16.4388 4.69283 16.5245 4.79399 16.6274 4.87569C16.7302 4.95739 16.8481 5.01803 16.9744 5.05415C17.1007 5.09028 17.2329 5.10117 17.3634 5.08621C17.4939 5.07126 17.6202 5.03074 17.735 4.96699C17.8498 4.90323 17.951 4.81748 18.0327 4.71463C18.1144 4.61178 18.175 4.49384 18.2112 4.36755C18.2473 4.24126 18.2582 4.1091 18.2432 3.9786C18.2283 3.8481 18.1878 3.72183 18.124 3.60699C17.3723 2.2493 16.1907 1.17991 14.765 0.566901C13.3393 -0.046105 11.7504 -0.167963 10.2479 0.220483C8.74538 0.608928 7.41457 1.48565 6.46463 2.71284C5.51469 3.94003 4.99948 5.44809 5 6.99999V8.42399C4.10936 8.81269 3.35129 9.45251 2.8185 10.2652C2.28571 11.0779 2.00128 12.0282 2 13V19C2.00159 20.3256 2.52888 21.5964 3.46622 22.5338C4.40356 23.4711 5.67441 23.9984 7 24H17C18.3256 23.9984 19.5964 23.4711 20.5338 22.5338C21.4711 21.5964 21.9984 20.3256 22 19V13C21.9984 11.6744 21.4711 10.4035 20.5338 9.46621C19.5964 8.52887 18.3256 8.00158 17 7.99999ZM20 19C20 19.7956 19.6839 20.5587 19.1213 21.1213C18.5587 21.6839 17.7956 22 17 22H7C6.20435 22 5.44129 21.6839 4.87868 21.1213C4.31607 20.5587 4 19.7956 4 19V13C4 12.2043 4.31607 11.4413 4.87868 10.8787C5.44129 10.3161 6.20435 9.99999 7 9.99999H17C17.7956 9.99999 18.5587 10.3161 19.1213 10.8787C19.6839 11.4413 20 12.2043 20 13V19Z" fill="#2161D0"/>
<path d="M12 14C11.7348 14 11.4804 14.1054 11.2929 14.2929C11.1054 14.4804 11 14.7348 11 15V17C11 17.2652 11.1054 17.5196 11.2929 17.7071C11.4804 17.8946 11.7348 18 12 18C12.2652 18 12.5196 17.8946 12.7071 17.7071C12.8946 17.5196 13 17.2652 13 17V15C13 14.7348 12.8946 14.4804 12.7071 14.2929C12.5196 14.1054 12.2652 14 12 14Z" fill="#2161D0"/>
</g>
<defs>
<clipPath id="clip0_146_121">
<rect width="24" height="24" fill="white"/>
</clipPath>
</defs>
</svg>
