<svg width="159" height="19" viewBox="0 0 159 19" fill="none" xmlns="http://www.w3.org/2000/svg">
<path d="M53.0672 4.94251C55.3584 4.94251 57.6561 4.96195 59.9473 4.92959C60.4781 4.92308 60.7045 5.03318 60.6657 5.60991C60.614 6.33553 60.614 7.06124 60.6657 7.78694C60.6981 8.30528 60.5557 8.45434 60.0184 8.45434C55.8309 8.42839 51.6369 8.44141 47.4492 8.44141C47.0544 8.44141 46.6466 8.4867 46.2583 8.42839C45.624 8.33772 45.4752 8.57746 45.4946 9.18646C45.514 9.69187 45.6046 9.85386 46.1418 9.84744C49.7469 9.8215 53.352 9.83443 56.9571 9.83443C59.3259 9.83443 61.1835 11.5968 61.2482 13.8193C61.3259 16.3657 59.3648 18.2187 57.0024 18.2123C53.0672 18.1993 49.1385 18.2123 45.2033 18.2123C44.5237 18.2123 43.8441 18.1864 43.1645 18.2187C42.7503 18.2382 42.6468 18.0763 42.6597 17.694C42.6856 16.9229 42.705 16.1454 42.6597 15.3743C42.6273 14.843 42.7892 14.7134 43.3134 14.7199C47.9023 14.7394 52.4912 14.7199 57.08 14.7458C57.682 14.7458 57.805 14.5643 57.8115 14.0007C57.8179 13.424 57.6237 13.3203 57.093 13.3203C53.5332 13.3398 49.9799 13.3333 46.4201 13.3333C44.3684 13.3333 42.7115 12.1476 42.1743 10.301C41.6565 8.52557 42.375 6.59479 43.9348 5.58397C44.6144 5.14338 45.3651 4.92959 46.1871 4.92959C48.4783 4.92959 50.776 4.92959 53.0672 4.92959V4.94251Z" fill="#2161D0"/>
<path d="M32.3673 14.7459C34.6844 14.7459 37.0015 14.7653 39.3186 14.7329C39.8622 14.7264 39.9982 14.8949 39.9658 15.4068C39.9205 16.0807 39.9141 16.7674 39.9658 17.4413C40.0176 18.0568 39.8234 18.2448 39.1957 18.2383C36.9044 18.1994 34.6068 18.2188 32.3156 18.2123C30.115 18.2123 27.9143 18.2123 25.7138 18.2123C23.0602 18.2059 21.332 16.463 21.332 13.8129C21.332 12.2189 21.332 10.625 21.332 9.03108C21.3449 6.80217 23.1636 4.96205 25.3901 4.94903C28.8787 4.9296 32.3673 4.93611 35.8495 4.93611C37.9853 4.93611 39.804 6.66612 39.9205 8.86909C39.9917 10.1974 39.9335 11.5386 39.9529 12.8733C39.9529 13.2556 39.7976 13.3398 39.448 13.3398C35.0921 13.3333 30.7427 13.3269 26.3869 13.3398C25.9856 13.3398 25.9274 13.1714 25.9338 12.8344C25.9532 12.0634 25.9726 11.2859 25.9338 10.5149C25.9015 9.9835 26.0309 9.80858 26.607 9.81509C29.6749 9.84745 32.7363 9.81509 35.8041 9.84095C36.3672 9.84095 36.5161 9.68546 36.5031 9.14118C36.4902 8.64228 36.432 8.40906 35.8301 8.41557C32.3673 8.44793 28.9046 8.44142 25.442 8.41557C24.9565 8.41557 24.8076 8.52567 24.8206 9.03108C24.8529 10.7157 24.8594 12.4069 24.8206 14.0915C24.8076 14.6358 24.9824 14.7459 25.4873 14.7394C27.7784 14.7135 30.0762 14.7264 32.3673 14.7264V14.7459Z" fill="#2161D0"/>
<path d="M127.344 18.1929C125.007 18.1929 122.664 18.1799 120.328 18.1993C119.855 18.1993 119.647 18.0763 119.667 17.5773C119.693 16.8517 119.7 16.126 119.655 15.4003C119.622 14.8754 119.784 14.7264 120.314 14.7329C123.123 14.7588 125.932 14.7459 128.735 14.7459C130.534 14.7459 132.34 14.7199 134.139 14.7588C134.734 14.7717 134.806 14.545 134.825 14.0331C134.851 13.4629 134.657 13.3204 134.114 13.3268C130.58 13.3463 127.045 13.3398 123.519 13.3398C121.803 13.3398 120.437 12.6919 119.557 11.1627C118.011 8.46728 120.029 4.94904 123.129 4.94253C127.712 4.9296 132.301 4.94253 136.883 4.9231C137.492 4.9231 137.719 5.07858 137.661 5.71361C137.596 6.38743 137.596 7.07427 137.661 7.74809C137.712 8.32473 137.524 8.46086 136.974 8.45435C132.813 8.43492 128.645 8.44143 124.482 8.44143C124.107 8.44143 123.731 8.44143 123.363 8.44143C122.547 8.44143 122.275 8.8107 122.509 9.59471C122.625 9.97058 122.929 9.82802 123.149 9.82802C126.728 9.83444 130.307 9.82802 133.887 9.82802C135.809 9.82802 137.174 10.6638 137.964 12.4521C139.052 14.9078 137.265 18.0179 134.567 18.1346C132.159 18.2383 129.751 18.154 127.337 18.154C127.337 18.1604 127.337 18.1734 127.337 18.1799L127.344 18.1929Z" fill="#3C3C3C"/>
<path d="M7.62464 4.94267C9.84468 4.94267 12.0712 4.94917 14.2912 4.94267C16.5629 4.92974 18.3492 6.36813 18.5758 8.62299C18.7699 10.5992 18.7829 12.6078 18.5629 14.584C18.3234 16.7481 16.6276 18.2059 14.4465 18.2189C9.83818 18.2448 5.22988 18.2189 0.61511 18.2319C0.116741 18.2319 -0.00623332 18.0763 0.000239 17.5969C0.019656 13.5667 0.0131837 9.53654 0.000239 5.50638C0.000239 5.0139 0.174991 4.93616 0.608637 4.93616C2.95162 4.95559 5.28813 4.94267 7.63111 4.94267H7.62464ZM9.38515 8.44798C7.63111 8.44798 5.87711 8.461 4.12958 8.43506C3.67005 8.43506 3.48235 8.49987 3.48883 9.03113C3.52765 10.7352 3.52118 12.4458 3.48883 14.1564C3.47588 14.6682 3.65063 14.7654 4.12311 14.7589C7.60522 14.7395 11.0874 14.7395 14.5694 14.7589C15.0031 14.7589 15.1779 14.6876 15.1714 14.2016C15.139 12.4717 15.139 10.7417 15.1714 9.01169C15.1779 8.52572 15.0096 8.44798 14.576 8.45449C12.8478 8.48043 11.1197 8.461 9.39156 8.461L9.38515 8.44798Z" fill="#2161D0"/>
<path d="M106.398 4.94278C108.618 4.94278 110.845 4.9557 113.065 4.94278C115.317 4.92985 117.136 6.49778 117.31 8.74613C117.414 10.0874 117.53 11.4546 116.767 12.7051C115.951 14.0399 114.767 14.7396 113.24 14.7591C110.126 14.7979 107.019 14.7656 103.906 14.7785C103.511 14.7785 103.311 14.7137 103.33 14.2471C103.362 13.4761 103.343 12.6986 103.311 11.9276C103.285 11.4092 103.473 11.2602 103.996 11.2602C107.013 11.2861 110.035 11.2602 113.052 11.2796C113.654 11.2796 113.984 11.1889 113.887 10.4761C113.822 9.99668 113.867 9.49127 113.899 9.00539C113.925 8.57772 113.77 8.44167 113.343 8.44167C111.544 8.46111 109.738 8.44167 107.938 8.44167C106.256 8.44167 104.566 8.46753 102.883 8.43517C102.346 8.42224 102.217 8.59065 102.223 9.10898C102.249 11.8692 102.223 14.6359 102.249 17.3961C102.249 18.0117 102.107 18.2903 101.433 18.232C100.716 18.1737 99.9835 18.2126 99.2586 18.2191C98.8837 18.2191 98.7216 18.096 98.7287 17.6877C98.7412 13.6122 98.7412 9.53665 98.7287 5.46111C98.7287 4.92334 99.0066 4.92334 99.3886 4.92334C101.725 4.92985 104.068 4.92334 106.404 4.92334L106.398 4.94278Z" fill="#3C3C3C"/>
<path d="M148.021 4.94283C150.241 4.94283 152.468 4.94283 154.688 4.94283C156.992 4.94283 158.772 6.51076 158.934 8.82392C159.031 10.1911 159.141 11.5842 158.299 12.8282C157.497 14.0204 156.397 14.7201 154.979 14.7461C151.794 14.798 148.617 14.759 145.432 14.7785C145.024 14.7785 144.915 14.6424 144.927 14.2537C144.953 13.4826 144.967 12.7051 144.927 11.934C144.895 11.4028 145.083 11.2537 145.601 11.2602C148.597 11.2796 151.588 11.2602 154.585 11.2926C155.244 11.2991 155.601 11.2019 155.478 10.4243C155.374 9.78936 155.769 8.92761 155.328 8.55183C154.953 8.23436 154.125 8.44815 153.497 8.44815C150.5 8.44815 147.504 8.46107 144.513 8.43522C143.957 8.43522 143.814 8.61014 143.82 9.14791C143.846 11.9146 143.82 14.6749 143.853 17.4415C143.86 18.083 143.659 18.2514 143.057 18.2125C142.358 18.1672 141.653 18.1867 140.954 18.2125C140.52 18.2256 140.332 18.1089 140.332 17.623C140.345 13.5928 140.352 9.56256 140.332 5.53891C140.332 4.99463 140.578 4.93632 141.019 4.94283C143.355 4.95576 145.698 4.94283 148.034 4.94283H148.021Z" fill="#3C3C3C"/>
<path d="M63.3315 9.09592C63.3315 6.28386 63.3445 3.47179 63.3186 0.659731C63.3186 0.134977 63.4351 -0.0335229 63.9723 0.00534783C64.7425 0.0571457 65.5192 0.0442185 66.2894 0.00534783C66.736 -0.0140875 66.846 0.147901 66.8395 0.56906C66.8137 1.8131 66.8589 3.05063 66.8201 4.29467C66.8072 4.81301 66.9366 4.95556 67.4674 4.95556C70.8589 4.92971 74.2568 4.94264 77.6483 4.94264C80.1725 4.94264 81.9589 6.75039 81.9524 9.29027C81.9524 12.057 81.946 14.8172 81.9654 17.5839C81.9654 18.0634 81.8553 18.2578 81.3441 18.2254C80.6191 18.1865 79.8942 18.1865 79.1693 18.2254C78.6386 18.2578 78.4574 18.1217 78.4638 17.545C78.4962 14.7135 78.4638 11.8756 78.4897 9.03761C78.4897 8.55815 78.3927 8.4221 77.8878 8.4221C74.3992 8.44795 70.9106 8.44795 67.4285 8.4221C66.9237 8.4221 66.8201 8.56456 66.8201 9.05054C66.8395 11.882 66.8201 14.72 66.8395 17.558C66.8395 18.0764 66.723 18.2642 66.1794 18.2254C65.435 18.1736 64.6778 18.18 63.9335 18.2254C63.4286 18.2578 63.3121 18.0828 63.3186 17.5968C63.338 14.7654 63.3315 11.9274 63.3315 9.08941V9.09592Z" fill="#2161D0"/>
<path d="M84.6576 11.5709C84.6576 9.58172 84.6706 7.58603 84.6512 5.59685C84.6512 5.11087 84.7224 4.87765 85.292 4.92945C86.0557 4.99426 86.8324 4.9619 87.609 4.94246C87.9909 4.92945 88.1398 5.02671 88.1398 5.44136C88.1268 9.54284 88.1398 13.6378 88.1398 17.7392C88.1398 18.0891 88.0557 18.2381 87.6673 18.2252C86.8712 18.1928 86.0751 18.1928 85.279 18.2317C84.7936 18.2575 84.6382 18.1215 84.6447 17.6161C84.6706 15.6011 84.6576 13.5859 84.6576 11.5709Z" fill="#2161D0"/>
</svg>
