<svg width="153" height="177" viewBox="0 0 153 177" fill="none" xmlns="http://www.w3.org/2000/svg">
<g opacity="0.7">
<path d="M87.2691 107.138L87.2509 112.893L114.016 128.348L114.034 122.593L87.2691 107.138Z" fill="white"/>
<path d="M87.2144 126.722V128.841L120.662 148.151V146.05L87.2144 126.722Z" fill="white"/>
<path d="M87.2325 122.849V124.968L132.785 151.293L132.803 149.174L87.2325 122.849Z" fill="white"/>
<path d="M87.2508 118.976L87.2325 121.095L129.608 145.557V143.456L87.2508 118.976Z" fill="white"/>
<path d="M122.488 89.8018L122.415 116.072L145.273 129.28L145.364 103.01L122.488 89.8018Z" fill="#97B5FF"/>
<path d="M57.1444 52.0412L57.1261 58.9101L89.2774 77.489L89.2957 70.6201L57.1444 52.0412Z" fill="white"/>
<path d="M8.21448 34.4122V37.4082L89.2591 84.2483L89.2774 81.234L8.21448 34.4122Z" fill="white"/>
<path d="M73.1196 97.6389C67.5876 94.442 63.0963 97.0178 63.078 103.375C63.078 109.733 67.5328 117.478 73.0648 120.675C78.5968 123.872 83.0881 121.296 83.1064 114.957C83.1064 108.6 78.6699 100.854 73.1379 97.6572L73.1196 97.6389Z" fill="white"/>
<path d="M87.2509 115.103V117.223L139.905 147.639V145.539L87.2509 115.103Z" fill="white"/>
<path d="M25.4678 91.0441V93.1632L58.9154 112.473V110.372L25.4678 91.0441Z" fill="white"/>
<path d="M13.3631 80.1744L13.3448 82.2935L58.9154 108.6V106.499L13.3631 80.1744Z" fill="white"/>
<path d="M18.183 79.0782L18.1648 81.1974L58.9336 104.727V102.626L18.183 79.0782Z" fill="white"/>
<path d="M24.4271 78.8043L24.4088 80.9234L58.9336 100.872L58.9519 98.7533L24.4271 78.8043Z" fill="white"/>
<path d="M42.2464 81.1243L42.2281 86.8788L58.9519 96.5428L58.9702 90.7883L42.2464 81.1243Z" fill="white"/>
<path d="M141.421 133.536C143.557 134.76 145.255 137.738 145.255 140.186L145.2 161.432C145.2 163.88 143.466 164.866 141.348 163.624L11.3913 88.5413C9.25522 87.3173 7.53902 84.3396 7.55727 81.8916L7.61204 60.6456C7.61204 58.1976 9.34649 57.2111 11.4826 58.4534L141.439 133.536H141.421ZM73.0649 120.657C78.5969 123.854 83.0882 121.278 83.1065 114.939C83.1065 108.582 78.6699 100.836 73.1379 97.6389C67.6059 94.442 63.1146 97.0178 63.0963 103.375C63.0963 109.733 67.5512 117.478 73.0832 120.675M87.2509 112.893L114.016 128.348V122.593L87.2691 107.138V112.893M87.2509 117.223L139.905 147.639V145.52L87.2509 115.103V117.223ZM87.2327 124.968L132.803 151.293V149.174L87.2509 122.849V124.968M13.3449 82.2936L58.9154 108.618V106.499L13.3631 80.1744V82.2936M58.9702 90.7883L42.2464 81.1244V86.8789L58.9519 96.5429V90.7883M87.2327 121.095L129.59 145.575V143.474L87.2327 118.995V121.095ZM58.9337 102.626L18.1831 79.0783V81.1792L58.9337 104.727V102.626ZM58.9519 98.7533L24.4271 78.8043V80.9234L58.9519 100.872V98.7533ZM25.4678 93.1632L58.9154 112.491V110.372L25.486 91.0441V93.1632M87.2144 128.841L120.662 148.169V146.05L87.2327 126.722V128.841" fill="#97B5FF"/>
<path d="M107.206 80.9599C100.889 77.3062 95.7588 80.2292 95.7405 87.5C95.7223 94.7525 100.834 103.594 107.133 107.248C113.45 110.902 118.581 107.961 118.599 100.708C118.617 93.4555 113.523 84.6136 107.206 80.9599Z" fill="white"/>
<path d="M58.4954 76.1371L58.4772 79.1331L89.2227 96.9082L89.2409 93.9122L58.4954 76.1371Z" fill="white"/>
<path d="M8.19629 40.7513V43.7473L89.241 90.5691L89.2592 87.5731L8.19629 40.7513Z" fill="white"/>
<path d="M152.521 171.443C152.521 176.339 149.052 178.312 144.798 175.846L7.84934 96.7255C3.59536 94.2775 0.162967 88.3221 0.181225 83.4261L0.38203 11.7047L152.74 99.7215L152.539 171.443H152.521ZM7.53896 81.9099C7.53896 84.3578 9.25514 87.3356 11.373 88.5595L141.329 163.642C143.465 164.866 145.182 163.88 145.182 161.45L145.236 140.204C145.236 137.756 143.538 134.797 141.402 133.554L11.446 58.4716C9.30993 57.2476 7.59371 58.2159 7.57546 60.6638L7.52069 81.9099M107.206 80.9599C100.889 77.3062 95.7588 80.2292 95.7406 87.5C95.7223 94.7525 100.834 103.594 107.133 107.248C113.45 110.902 118.581 107.961 118.599 100.708C118.617 93.4555 113.523 84.6136 107.206 80.9599ZM145.364 103.01L122.506 89.8018L122.433 116.09L145.291 129.298L145.364 103.01ZM89.2591 87.5731L8.19623 40.7513V43.7473L89.2409 90.5691V87.5731M89.2774 81.2339L8.21448 34.4122V37.4082L89.2591 84.2299V81.2339M89.2957 70.62L57.1444 52.0412V58.91L89.2774 77.4889V70.62M89.2409 93.9122L58.4954 76.1553V79.1514L89.2409 96.9082V93.9122Z" fill="#CCD9FF"/>
<path d="M145.072 80.6677L8.12315 1.54749C3.86917 -0.90047 0.418526 1.05425 0.400269 5.95016V11.7047L152.74 99.7215V93.967C152.777 89.0711 149.344 83.1156 145.072 80.6677Z" fill="#97B5FF"/>
</g>
</svg>
