<svg width="189" height="178" viewBox="0 0 189 178" fill="none" xmlns="http://www.w3.org/2000/svg">
<path d="M151.06 96.2061C111.514 73.3524 51.831 69.242 5.16503 83.8202C2.53596 84.6422 1.76913 88.0036 3.77745 89.9035L14.4398 99.9511C16.2838 101.705 15.6996 104.756 13.3443 105.724C11.4638 106.509 9.61984 107.332 7.81235 108.208C5.38411 109.396 5.21979 112.812 7.575 114.164L24.9561 124.193C26.9279 125.326 29.3196 125.417 31.3462 124.412C33.3362 123.444 35.4358 122.567 37.5902 121.8C56.9978 114.913 82.7956 116.338 99.6472 126.075C108.301 131.08 113.176 137.456 114.29 143.996C114.837 147.266 117.393 149.787 120.698 149.988L146.678 151.45C148.796 151.577 150.33 153.623 149.727 155.651C148.76 158.867 147.244 162.027 145.199 165.096C143.794 167.197 144.889 170.065 147.317 170.759L169.5 177.153C172.805 178.103 176.328 176.824 178.318 174.029C182.919 167.507 185.786 160.657 186.899 153.733C190.204 133.181 178.264 111.899 151.06 96.1878V96.2061Z" fill="#97B5FF"/>
<g opacity="0.7">
<path d="M19.2232 29.2343L19.1137 64.9855L0.034668 46.9729L0.125933 11.2401L19.2232 29.2343Z" fill="#180CB3"/>
<path d="M151.79 72.5303C151.79 71.9823 151.754 71.4525 151.736 70.9044C151.736 70.6304 151.736 70.3564 151.699 70.1006C151.662 69.6987 151.608 69.2969 151.553 68.8767C151.498 68.4748 151.48 68.0729 151.407 67.671C151.17 66.173 150.786 64.6749 150.311 63.1952C150.275 63.0673 150.238 62.9577 150.202 62.8299C150.038 62.3184 149.818 61.8068 149.618 61.2953C149.508 61.003 149.417 60.729 149.289 60.4367C149.161 60.1262 148.997 59.8156 148.851 59.505C148.632 59.03 148.431 58.5368 148.175 58.0618C148.139 57.9887 148.084 57.8974 148.048 57.8243C147.281 56.3263 146.386 54.8649 145.382 53.4034C143.885 51.2477 142.096 49.1651 140.069 47.1191C139.923 46.9729 139.813 46.845 139.667 46.6989C135.998 43.1 131.47 39.7021 126.12 36.5965C124.404 35.61 122.633 34.6783 120.826 33.8015C120.661 33.7284 120.497 33.6371 120.333 33.564C118.598 32.7236 116.827 31.9381 115.002 31.1891C114.746 31.0795 114.49 30.9699 114.235 30.8785C114.016 30.7872 113.797 30.6958 113.577 30.6045C111.88 29.9286 110.127 29.2892 108.356 28.7046C108.21 28.6498 108.064 28.6132 107.936 28.5767C106.348 28.0469 104.723 27.5354 103.079 27.0604C102.824 26.9874 102.568 26.9326 102.294 26.8595C101.838 26.7316 101.382 26.622 100.943 26.4941C99.3367 26.0557 97.6936 25.672 96.0504 25.2884C95.5939 25.1788 95.1558 25.0875 94.6993 24.9778C94.4437 24.923 94.2064 24.8682 93.969 24.8134C92.2528 24.4663 90.5366 24.1558 88.7839 23.8635C88.364 23.7904 87.9623 23.7356 87.5424 23.6625C86.8121 23.5529 86.0636 23.4251 85.3333 23.3154C84.11 23.1328 82.8685 22.9866 81.627 22.8405C81.4992 22.8405 81.3897 22.8039 81.2619 22.8039C79.8013 22.6395 78.3407 22.4934 76.8801 22.3655C76.2593 22.3107 75.6203 22.2741 74.9996 22.2376C74.5797 22.2011 74.1597 22.1828 73.7398 22.1463C71.9323 22.0367 70.1248 21.9453 68.3174 21.9088C68.08 21.9088 67.8244 21.9088 67.5871 21.9088C67.2037 21.9088 66.802 21.9088 66.4186 21.9088C64.5198 21.8905 62.6028 21.9088 60.704 21.9453C60.4119 21.9453 60.1015 21.9453 59.8094 21.9453C59.6633 21.9453 59.5173 21.9453 59.3712 21.9453C57.4177 22.0184 55.4824 22.128 53.5471 22.2741C53.0359 22.3107 52.5247 22.3655 52.0317 22.402C51.2649 22.4751 50.4798 22.5116 49.713 22.603C48.9097 22.6761 48.1246 22.8039 47.3213 22.8953C46.591 22.9866 45.879 23.0597 45.1669 23.151C43.4507 23.3702 41.7528 23.6443 40.0549 23.9183C39.635 23.9914 39.215 24.0462 38.7951 24.1192C38.7038 24.1192 38.6125 24.1375 38.5212 24.1558C36.6225 24.5029 34.7237 24.9048 32.8614 25.3249C32.4415 25.4163 32.0216 25.5259 31.6017 25.6172C29.6481 26.074 27.7129 26.5672 25.8141 27.1152C25.5585 27.1883 25.3211 27.2614 25.0655 27.3345C24.0979 27.6268 23.1302 27.9008 22.1991 28.2113C21.195 28.5402 20.1908 28.869 19.2049 29.2344L19.0953 64.9672C21.0124 64.2913 22.9842 63.6702 24.956 63.0856C25.2116 63.0125 25.4489 62.9395 25.6863 62.8664C27.585 62.3183 29.5203 61.8251 31.4739 61.3684C31.8938 61.277 32.3137 61.1674 32.7336 61.0761C34.6872 60.6376 36.659 60.2174 38.6673 59.8703C39.0872 59.7973 39.5071 59.7425 39.9271 59.6694C41.625 59.3771 43.3229 59.1214 45.0391 58.9022C45.7512 58.8108 46.4815 58.7195 47.1935 58.6464C48.7636 58.4637 50.3338 58.2993 51.9039 58.1714C52.4151 58.1349 52.9081 58.0801 53.4193 58.0435C55.5006 57.8974 57.582 57.7695 59.6816 57.7147C59.9737 57.7147 60.2841 57.7147 60.5762 57.7147C62.475 57.6599 64.392 57.6599 66.2908 57.6782C66.6742 57.6782 67.0758 57.6782 67.4593 57.6782C69.5223 57.7147 71.5672 57.8061 73.612 57.9339C74.0319 57.9522 74.4518 57.9888 74.8718 58.0253C76.9714 58.1714 79.071 58.3541 81.1523 58.5916C81.2801 58.5916 81.3897 58.6281 81.5175 58.6281C83.5075 58.8656 85.4793 59.1397 87.4511 59.4502C87.871 59.5233 88.2727 59.5781 88.6926 59.6512C90.6827 59.98 92.6545 60.3636 94.608 60.7655C95.0645 60.8569 95.5026 60.9665 95.9591 61.0761C97.6023 61.4414 99.2454 61.8433 100.852 62.2818C101.308 62.4097 101.765 62.5193 102.203 62.6472C104.102 63.177 105.982 63.7433 107.826 64.3644C107.972 64.4192 108.119 64.4558 108.246 64.4923C110.236 65.1682 112.208 65.8989 114.125 66.6662C114.381 66.7758 114.636 66.8854 114.892 66.9768C116.7 67.7258 118.489 68.5113 120.223 69.3516C120.388 69.4247 120.552 69.516 120.716 69.5891C122.524 70.4843 124.295 71.3977 126.011 72.4025C127.599 73.3159 129.096 74.2841 130.539 75.2523C131.415 75.8369 132.273 76.4397 133.095 77.0609C134.208 77.8829 135.267 78.7233 136.271 79.5637C137.13 80.2944 137.969 81.0251 138.754 81.7741C139.01 82.0116 139.302 82.2674 139.54 82.5048C139.686 82.651 139.813 82.7789 139.941 82.925C141.968 84.9528 143.739 87.0537 145.236 89.1911C146.021 90.3237 146.715 91.4746 147.354 92.6255C148.011 93.813 148.632 95.0187 149.143 96.2244C149.745 97.6311 150.202 99.0742 150.585 100.499C150.64 100.682 150.695 100.846 150.731 101.029C150.877 101.65 151.005 102.271 151.115 102.892C151.151 103.075 151.206 103.258 151.224 103.459C151.297 103.861 151.316 104.262 151.37 104.664C151.425 105.066 151.48 105.468 151.516 105.888C151.535 106.162 151.516 106.436 151.553 106.692C151.589 107.24 151.608 107.77 151.608 108.318C151.608 107.021 151.608 105.687 151.608 104.299L151.644 91.7303C151.662 85.0441 151.681 78.3031 151.699 72.5669L151.79 72.5303Z" fill="#180CB3"/>
<mask id="mask0_130_3815" style="mask-type:luminance" maskUnits="userSpaceOnUse" x="151" y="72" width="1" height="41">
<path d="M151.79 72.5303L151.681 108.263C151.681 109.816 151.553 111.369 151.297 112.903L151.407 77.1705C151.663 75.6176 151.79 74.0831 151.79 72.5303Z" fill="white"/>
</mask>
<g mask="url(#mask0_130_3815)">
<path d="M151.79 72.5303L151.681 108.263C151.681 108.519 151.681 108.775 151.681 109.03L151.79 73.2976C151.79 73.0418 151.79 72.7861 151.79 72.5303Z" fill="#00658B"/>
<path d="M151.772 73.2975L151.663 109.03C151.626 110.327 151.498 111.606 151.297 112.903L151.407 77.1704C151.608 75.8916 151.736 74.5946 151.772 73.2975Z" fill="#00688F"/>
</g>
<path d="M188.086 75.1975C188.068 75.5263 188.05 75.8552 188.031 76.184C187.94 77.207 187.831 78.2118 187.666 79.2348C187.538 80.0203 187.374 80.8059 187.192 81.5731C187.064 82.1943 186.899 82.8154 186.735 83.4365C186.607 83.9298 186.461 84.423 186.315 84.9163C186.133 85.5374 185.913 86.1585 185.694 86.7796C185.53 87.2546 185.366 87.7296 185.165 88.2228C184.891 88.8988 184.599 89.593 184.307 90.2689C184.106 90.7073 183.923 91.1458 183.723 91.5842C183.376 92.3332 182.974 93.0639 182.572 93.813C182.372 94.1783 182.207 94.5254 182.006 94.8908C181.349 96.0417 180.637 97.1926 179.889 98.3252C179.724 98.581 179.523 98.8367 179.341 99.0925C178.738 99.9694 178.099 100.846 177.442 101.705C176.803 102.527 176.164 103.349 175.47 104.171L175.361 139.904C175.945 139.228 176.511 138.534 177.04 137.84C177.15 137.712 177.223 137.566 177.332 137.438C177.99 136.579 178.629 135.702 179.231 134.844C179.414 134.588 179.615 134.314 179.779 134.058C180.546 132.925 181.24 131.775 181.897 130.624C181.933 130.569 181.97 130.514 181.988 130.459C182.152 130.149 182.299 129.838 182.463 129.528C182.865 128.797 183.248 128.048 183.613 127.317C183.814 126.879 183.996 126.44 184.197 126.002C184.489 125.326 184.8 124.65 185.055 123.956C185.128 123.791 185.201 123.627 185.274 123.444C185.384 123.134 185.475 122.823 185.585 122.512C185.804 121.891 186.005 121.27 186.206 120.649C186.352 120.156 186.498 119.663 186.626 119.169C186.79 118.548 186.936 117.927 187.082 117.306C187.137 117.05 187.21 116.813 187.265 116.557C187.374 116.027 187.465 115.497 187.557 114.968C187.721 113.945 187.831 112.94 187.922 111.917C187.958 111.588 187.958 111.259 187.977 110.93C188.013 110.437 188.05 109.962 188.068 109.469C188.068 109.104 188.068 108.738 188.068 108.373L188.177 72.64C188.177 73.4986 188.123 74.3572 188.068 75.1975H188.086Z" fill="#3123C3"/>
<path d="M28.9909 51.5766L28.8814 87.3094L2.97412 72.3477L3.08369 36.6148L28.9909 51.5766Z" fill="#587CE5"/>
<path d="M100.414 51.5765C99.3186 50.9372 98.1683 50.3525 96.9999 49.7862C96.6164 49.6035 96.1965 49.4391 95.8131 49.2565C95.0098 48.8911 94.2248 48.544 93.4032 48.2151C93.3119 48.1786 93.2389 48.1421 93.1476 48.1055C92.1617 47.7219 91.1392 47.3383 90.1168 47.0095C90.0438 46.9912 89.9707 46.9729 89.8977 46.9364C88.9666 46.6258 88.0172 46.3335 87.0678 46.0595C86.9766 46.023 86.867 46.0047 86.7757 45.9864C85.2421 45.548 83.6537 45.1644 82.0653 44.8355C81.974 44.8173 81.8827 44.7807 81.7915 44.7624C81.4811 44.6894 81.1524 44.6528 80.8238 44.598C79.7101 44.3788 78.5964 44.1778 77.4827 44.0134C77.2453 43.9769 77.0263 43.9221 76.7889 43.8856C76.4785 43.849 76.1499 43.8125 75.8395 43.776C74.8536 43.6481 73.8677 43.5385 72.8818 43.4471C72.5532 43.4106 72.2063 43.3558 71.8777 43.3375C71.6586 43.3375 71.4395 43.3192 71.2204 43.301C70.1249 43.2279 69.0478 43.1731 67.9523 43.1183C67.6054 43.1183 67.2585 43.0635 66.8934 43.0635C66.8021 43.0635 66.7108 43.0635 66.6013 43.0635C65.0311 43.027 63.4427 43.0269 61.8726 43.0818C61.8178 43.0818 61.763 43.0818 61.69 43.0818C61.4709 43.0818 61.2519 43.1183 61.051 43.1183C59.6269 43.1731 58.2211 43.2644 56.797 43.4106C56.5597 43.4289 56.3223 43.4289 56.085 43.4654C55.6103 43.5202 55.1539 43.575 54.6974 43.6298C54.2775 43.6846 53.8576 43.7212 53.4559 43.776C52.4518 43.9038 51.4659 44.0683 50.48 44.2327C50.2426 44.2692 50.0053 44.3057 49.7679 44.3423C49.7131 44.3423 49.6766 44.3423 49.6219 44.3605C49.4028 44.3971 49.1837 44.4519 48.9646 44.5067C47.7413 44.7442 46.5181 44.9999 45.3131 45.2922C44.8202 45.4201 44.3455 45.548 43.8525 45.6759C42.8849 45.9316 41.9172 46.2056 40.9679 46.4979C40.694 46.5893 40.4201 46.6441 40.1645 46.7354C39.5803 46.9181 38.9961 47.1191 38.4301 47.32C35.1072 48.5075 31.9304 49.9141 29.064 51.5948L28.9545 87.3277C31.8209 85.6653 34.9977 84.2403 38.3205 83.0529C39.1603 82.7606 40.0185 82.5048 40.8766 82.2308C41.8259 81.9385 42.7936 81.6645 43.7795 81.4087C44.2724 81.2808 44.7471 81.153 45.2401 81.0251C46.4451 80.7328 47.6683 80.4771 48.8916 80.2396C49.1654 80.1848 49.421 80.13 49.6949 80.0752C49.9322 80.0386 50.1878 80.002 50.4252 79.9655C51.4111 79.8011 52.397 79.6549 53.4012 79.5088C53.8211 79.454 54.241 79.3992 54.6609 79.3627C55.3547 79.2896 56.0667 79.2165 56.7605 79.1435C58.1663 79.0156 59.5904 78.9242 61.0145 78.8512C61.2884 78.8512 61.5622 78.8146 61.8361 78.8146C63.4062 78.7598 64.9946 78.7598 66.5647 78.7964C67.0212 78.7964 67.4594 78.8329 67.9158 78.8512C69.0112 78.8877 70.0884 78.9425 71.1839 79.0339C71.7316 79.0704 72.2976 79.1252 72.8453 79.18C73.8312 79.2713 74.8171 79.3809 75.803 79.5088C76.3507 79.5819 76.8985 79.655 77.4462 79.7281C78.5781 79.8925 79.6736 80.0934 80.7873 80.3126C81.2072 80.3857 81.6271 80.4588 82.0288 80.5501C83.6172 80.8789 85.1873 81.2808 86.7392 81.701C87.7981 81.9933 88.8571 82.3221 89.8795 82.6509C89.9525 82.6692 90.0255 82.6875 90.0986 82.724C91.2123 83.1077 92.3077 83.5096 93.3849 83.948C94.2065 84.2769 94.9916 84.6422 95.7949 84.9893C96.1965 85.172 96.5982 85.3364 96.9999 85.5191C98.1683 86.0854 99.3003 86.67 100.414 87.3094C107.242 91.2554 111.734 96.06 113.851 101.139C114.819 103.44 115.294 105.797 115.294 108.154L115.403 72.4207C115.422 64.8759 110.474 57.3311 100.524 51.5765H100.414Z" fill="#0D095E"/>
<path d="M126.139 36.6148C145.309 47.6854 153.744 62.6837 151.407 77.1705L115.056 75.1244C116.408 66.721 111.533 58.007 100.396 51.5766C83.5441 41.8396 57.7464 40.4146 38.3388 47.3018C35.0159 48.4892 31.8391 49.8959 28.9727 51.5766L3.06543 36.6148C8.03145 33.7284 13.4722 31.2804 19.205 29.2344C52.6343 17.3782 97.0729 19.8262 126.12 36.6148H126.139Z" fill="#C5D2FC"/>
<path d="M151.407 77.1705L151.316 112.922L114.965 110.857L115.057 75.1245L151.407 77.1705Z" fill="#587CE5"/>
<path d="M151.809 21.6895C179.012 37.4003 190.971 58.6646 187.648 79.2348C186.26 87.8209 182.171 96.2792 175.452 104.153L142.808 94.7446C147.536 89.1911 150.403 83.2355 151.389 77.1704C153.726 62.6837 145.291 47.6854 126.12 36.6148C97.0729 19.8262 52.6343 17.3782 19.205 29.2343L0.125977 11.2218C47.5405 -5.60338 110.602 -2.13239 151.809 21.6713V21.6895Z" fill="#5447CB"/>
<path d="M175.47 104.153L175.379 139.886L142.735 130.477L142.826 94.7446L175.47 104.153Z" fill="#180CB3"/>
</g>
</svg>
