<svg width="147" height="180" viewBox="0 0 147 180" fill="none" xmlns="http://www.w3.org/2000/svg">
<g opacity="0.7">
<path d="M137.037 84.1805L136.763 179.085L0.106567 100.129L0.380431 5.24304L137.037 84.1805Z" fill="#587DE5"/>
<path d="M137.037 84.1805L146.038 78.9557L145.782 173.841L136.763 179.084L137.037 84.1805Z" fill="#0D095E"/>
<path d="M0.380371 5.24301L9.38129 0L146.038 78.9557L137.037 84.1805L0.380371 5.24301Z" fill="#CCD9FF"/>
<path d="M40.0538 76.5078C40.0173 88.0717 46.5718 101.663 55.6822 110.268L52.1403 120.845C38.4289 107.875 28.5152 87.3409 28.5699 69.8764L40.0721 76.5078H40.0538Z" fill="#3123C3"/>
<path d="M62.7113 50.4206C66.3262 52.5032 69.8134 55.1704 73.0632 58.2577L69.5395 68.8168C67.3669 66.7708 65.0665 65.017 62.6747 63.6286C50.2232 56.4309 40.0903 62.2037 40.0538 76.5078L28.5516 69.8764C28.6064 48.265 43.9061 39.5692 62.693 50.4206H62.7113Z" fill="#5647CB"/>
<path d="M73.0815 58.2578C86.7928 71.2283 96.7065 91.7619 96.6518 109.208C96.597 130.82 81.2973 139.534 62.5104 128.682C58.8954 126.6 55.4265 123.932 52.1584 120.845L55.7004 110.268C57.8548 112.314 60.1552 114.086 62.5469 115.456C74.9985 122.654 85.1314 116.881 85.1679 102.558C85.2044 91.0129 78.65 77.403 69.5578 68.8168L73.0815 58.2578Z" fill="#97B5FF"/>
</g>
</svg>
